<svg width="1920" height="1080" viewBox="0 0 1920 1080" fill="none" xmlns="http://www.w3.org/2000/svg">
<g clip-path="url(#clip0)">
<rect width="1920" height="1080" fill="#3F6DAB"/>
<path d="M85.0265 345.884C88.3221 349.193 90.8473 353.187 92.4224 357.583C93.9974 361.979 94.5835 366.668 94.1387 371.316C91.9073 392.829 87.6769 414.088 81.5022 434.816C125.793 424.561 152.845 412.686 165.132 406.463C172.101 402.934 180.127 402.097 187.674 404.114C209.31 409.882 231.609 412.785 254 412.75C380.873 412.75 476.25 323.628 476.25 222.25C476.25 120.904 380.873 31.75 254 31.75C127.127 31.75 31.75 120.904 31.75 222.25C31.75 268.859 51.3397 312.102 85.0265 345.884ZM69.3737 469.868C61.8512 471.359 54.3042 472.725 46.736 473.964C40.386 474.98 35.56 468.376 38.0683 462.47C40.8874 455.822 43.4713 449.076 45.8152 442.246L45.9105 441.928C53.7845 419.068 60.198 392.779 62.5475 368.3C23.5903 329.247 0 278.13 0 222.25C0 99.5045 113.728 0 254 0C394.272 0 508 99.5045 508 222.25C508 344.995 394.272 444.5 254 444.5C228.843 444.534 203.79 441.268 179.483 434.784C162.973 443.135 127.444 458.343 69.3737 469.868V469.868Z" fill="black" fill-opacity="0.1"/>
<path d="M127 142.875C127 138.665 128.673 134.627 131.65 131.65C134.627 128.673 138.665 127 142.875 127H365.125C369.335 127 373.373 128.673 376.35 131.65C379.327 134.627 381 138.665 381 142.875C381 147.085 379.327 151.123 376.35 154.1C373.373 157.077 369.335 158.75 365.125 158.75H142.875C138.665 158.75 134.627 157.077 131.65 154.1C128.673 151.123 127 147.085 127 142.875ZM127 222.25C127 218.04 128.673 214.002 131.65 211.025C134.627 208.048 138.665 206.375 142.875 206.375H365.125C369.335 206.375 373.373 208.048 376.35 211.025C379.327 214.002 381 218.04 381 222.25C381 226.46 379.327 230.498 376.35 233.475C373.373 236.452 369.335 238.125 365.125 238.125H142.875C138.665 238.125 134.627 236.452 131.65 233.475C128.673 230.498 127 226.46 127 222.25ZM127 301.625C127 297.415 128.673 293.377 131.65 290.4C134.627 287.423 138.665 285.75 142.875 285.75H269.875C274.085 285.75 278.123 287.423 281.1 290.4C284.077 293.377 285.75 297.415 285.75 301.625C285.75 305.835 284.077 309.873 281.1 312.85C278.123 315.827 274.085 317.5 269.875 317.5H142.875C138.665 317.5 134.627 315.827 131.65 312.85C128.673 309.873 127 305.835 127 301.625Z" fill="black" fill-opacity="0.1"/>
<path d="M258.658 965.176C257.056 966.785 255.828 968.727 255.062 970.864C254.297 973.001 254.012 975.281 254.228 977.542C255.313 988.002 257.37 998.338 260.372 1008.42C238.837 1003.43 225.684 997.657 219.71 994.631C216.321 992.915 212.419 992.508 208.749 993.488C198.229 996.293 187.387 997.705 176.5 997.687C114.812 997.687 68.4375 954.354 68.4375 905.062C68.4375 855.786 114.812 812.437 176.5 812.437C238.188 812.437 284.563 855.786 284.563 905.062C284.563 927.725 275.038 948.751 258.658 965.176ZM266.269 1025.46C269.927 1026.18 273.596 1026.85 277.276 1027.45C280.364 1027.94 282.71 1024.73 281.49 1021.86C280.12 1018.63 278.863 1015.35 277.724 1012.03L277.677 1011.87C273.849 1000.76 270.731 987.977 269.588 976.075C288.53 957.087 300 932.232 300 905.062C300 845.381 244.703 797 176.5 797C108.297 797 53 845.381 53 905.062C53 964.744 108.297 1013.12 176.5 1013.12C188.732 1013.14 200.913 1011.55 212.732 1008.4C220.759 1012.46 238.034 1019.86 266.269 1025.46V1025.46Z" fill="black" fill-opacity="0.08"/>
<path d="M238.25 866.469C238.25 864.422 237.437 862.458 235.989 861.011C234.542 859.563 232.578 858.75 230.531 858.75H122.469C120.422 858.75 118.458 859.563 117.011 861.011C115.563 862.458 114.75 864.422 114.75 866.469C114.75 868.516 115.563 870.479 117.011 871.927C118.458 873.374 120.422 874.187 122.469 874.187H230.531C232.578 874.187 234.542 873.374 235.989 871.927C237.437 870.479 238.25 868.516 238.25 866.469ZM238.25 905.062C238.25 903.015 237.437 901.052 235.989 899.605C234.542 898.157 232.578 897.344 230.531 897.344H122.469C120.422 897.344 118.458 898.157 117.011 899.605C115.563 901.052 114.75 903.015 114.75 905.062C114.75 907.11 115.563 909.073 117.011 910.52C118.458 911.968 120.422 912.781 122.469 912.781H230.531C232.578 912.781 234.542 911.968 235.989 910.52C237.437 909.073 238.25 907.11 238.25 905.062ZM238.25 943.656C238.25 941.609 237.437 939.646 235.989 938.198C234.542 936.751 232.578 935.937 230.531 935.937H168.781C166.734 935.937 164.771 936.751 163.323 938.198C161.876 939.646 161.063 941.609 161.063 943.656C161.063 945.703 161.876 947.667 163.323 949.114C164.771 950.562 166.734 951.375 168.781 951.375H230.531C232.578 951.375 234.542 950.562 235.989 949.114C237.437 947.667 238.25 945.703 238.25 943.656Z" fill="black" fill-opacity="0.08"/>
<path d="M1238.82 919.518C1240.09 920.795 1241.07 922.337 1241.68 924.034C1242.28 925.731 1242.51 927.541 1242.34 929.336C1241.48 937.64 1239.85 945.846 1237.46 953.848C1254.56 949.889 1265 945.305 1269.74 942.903C1272.43 941.541 1275.53 941.218 1278.45 941.996C1286.8 944.223 1295.41 945.344 1304.05 945.33C1353.02 945.33 1389.84 910.927 1389.84 871.793C1389.84 832.671 1353.02 798.256 1304.05 798.256C1255.07 798.256 1218.26 832.671 1218.26 871.793C1218.26 889.785 1225.82 906.478 1238.82 919.518ZM1232.78 967.379C1229.88 967.954 1226.96 968.481 1224.04 968.96C1221.59 969.352 1219.73 966.803 1220.7 964.523C1221.78 961.957 1222.78 959.353 1223.69 956.716L1223.72 956.593C1226.76 947.769 1229.24 937.621 1230.14 928.171C1215.11 913.096 1206 893.364 1206 871.793C1206 824.411 1249.9 786 1304.05 786C1358.2 786 1402.1 824.411 1402.1 871.793C1402.1 919.175 1358.2 957.586 1304.05 957.586C1294.34 957.599 1284.67 956.338 1275.28 953.836C1268.91 957.059 1255.2 962.93 1232.78 967.379V967.379Z" fill="black" fill-opacity="0.05"/>
<path d="M1255.02 841.153C1255.02 839.527 1255.67 837.969 1256.82 836.82C1257.97 835.67 1259.53 835.025 1261.15 835.025H1346.95C1348.57 835.025 1350.13 835.67 1351.28 836.82C1352.43 837.969 1353.07 839.527 1353.07 841.153C1353.07 842.778 1352.43 844.337 1351.28 845.486C1350.13 846.635 1348.57 847.281 1346.95 847.281H1261.15C1259.53 847.281 1257.97 846.635 1256.82 845.486C1255.67 844.337 1255.02 842.778 1255.02 841.153ZM1255.02 871.793C1255.02 870.168 1255.67 868.609 1256.82 867.46C1257.97 866.311 1259.53 865.665 1261.15 865.665H1346.95C1348.57 865.665 1350.13 866.311 1351.28 867.46C1352.43 868.609 1353.07 870.168 1353.07 871.793C1353.07 873.418 1352.43 874.977 1351.28 876.126C1350.13 877.276 1348.57 877.921 1346.95 877.921H1261.15C1259.53 877.921 1257.97 877.276 1256.82 876.126C1255.67 874.977 1255.02 873.418 1255.02 871.793ZM1255.02 902.433C1255.02 900.808 1255.67 899.249 1256.82 898.1C1257.97 896.951 1259.53 896.305 1261.15 896.305H1310.18C1311.8 896.305 1313.36 896.951 1314.51 898.1C1315.66 899.249 1316.31 900.808 1316.31 902.433C1316.31 904.059 1315.66 905.617 1314.51 906.767C1313.36 907.916 1311.8 908.562 1310.18 908.562H1261.15C1259.53 908.562 1257.97 907.916 1256.82 906.767C1255.67 905.617 1255.02 904.059 1255.02 902.433Z" fill="black" fill-opacity="0.05"/>
<path d="M1835.97 261.278C1834.87 262.381 1834.03 263.712 1833.51 265.177C1832.98 266.642 1832.79 268.205 1832.93 269.754C1833.68 276.924 1835.09 284.009 1837.15 290.918C1822.38 287.5 1813.37 283.542 1809.27 281.468C1806.95 280.292 1804.28 280.013 1801.76 280.685C1794.55 282.608 1787.12 283.575 1779.65 283.564C1737.37 283.564 1705.58 253.86 1705.58 220.073C1705.58 186.296 1737.37 156.582 1779.65 156.582C1821.94 156.582 1853.73 186.296 1853.73 220.073C1853.73 235.607 1847.2 250.019 1835.97 261.278ZM1841.19 302.6C1843.69 303.097 1846.21 303.552 1848.73 303.965C1850.85 304.304 1852.46 302.103 1851.62 300.135C1850.68 297.919 1849.82 295.671 1849.04 293.394L1849.01 293.288C1846.38 285.669 1844.25 276.908 1843.46 268.749C1856.45 255.733 1864.31 238.697 1864.31 220.073C1864.31 179.163 1826.4 146 1779.65 146C1732.9 146 1695 179.163 1695 220.073C1695 260.982 1732.9 294.145 1779.65 294.145C1788.04 294.157 1796.39 293.068 1804.49 290.907C1809.99 293.69 1821.83 298.759 1841.19 302.6V302.6Z" fill="black" fill-opacity="0.05"/>
<path d="M1821.98 193.618C1821.98 192.215 1821.42 190.869 1820.43 189.877C1819.44 188.885 1818.09 188.327 1816.69 188.327H1742.62C1741.21 188.327 1739.87 188.885 1738.88 189.877C1737.88 190.869 1737.33 192.215 1737.33 193.618C1737.33 195.021 1737.88 196.367 1738.88 197.359C1739.87 198.352 1741.21 198.909 1742.62 198.909H1816.69C1818.09 198.909 1819.44 198.352 1820.43 197.359C1821.42 196.367 1821.98 195.021 1821.98 193.618ZM1821.98 220.073C1821.98 218.669 1821.42 217.324 1820.43 216.331C1819.44 215.339 1818.09 214.782 1816.69 214.782H1742.62C1741.21 214.782 1739.87 215.339 1738.88 216.331C1737.88 217.324 1737.33 218.669 1737.33 220.073C1737.33 221.476 1737.88 222.822 1738.88 223.814C1739.87 224.806 1741.21 225.364 1742.62 225.364H1816.69C1818.09 225.364 1819.44 224.806 1820.43 223.814C1821.42 222.822 1821.98 221.476 1821.98 220.073ZM1821.98 246.527C1821.98 245.124 1821.42 243.778 1820.43 242.786C1819.44 241.794 1818.09 241.236 1816.69 241.236H1774.36C1772.96 241.236 1771.61 241.794 1770.62 242.786C1769.63 243.778 1769.07 245.124 1769.07 246.527C1769.07 247.93 1769.63 249.276 1770.62 250.268C1771.61 251.261 1772.96 251.818 1774.36 251.818H1816.69C1818.09 251.818 1819.44 251.261 1820.43 250.268C1821.42 249.276 1821.98 247.93 1821.98 246.527Z" fill="black" fill-opacity="0.05"/>
<path d="M1570.72 37.5516C1575.91 37.5516 1580.88 39.6115 1584.55 43.2781C1588.21 46.9447 1590.27 51.9177 1590.27 57.1031V213.516C1590.27 218.701 1588.21 223.674 1584.55 227.341C1580.88 231.007 1575.91 233.067 1570.72 233.067H1383.3C1372.93 233.069 1362.99 237.191 1355.65 244.524L1316.55 283.628V57.1031C1316.55 51.9177 1318.61 46.9447 1322.28 43.2781C1325.94 39.6115 1330.92 37.5516 1336.1 37.5516H1570.72ZM1336.1 18C1325.73 18 1315.79 22.1198 1308.45 29.453C1301.12 36.7863 1297 46.7323 1297 57.1031V307.226C1297 309.161 1297.57 311.051 1298.65 312.659C1299.73 314.267 1301.25 315.52 1303.04 316.259C1304.83 316.998 1306.8 317.19 1308.69 316.81C1310.59 316.431 1312.33 315.497 1313.7 314.128L1369.48 258.347C1373.14 254.68 1378.12 252.62 1383.3 252.619H1570.72C1581.09 252.619 1591.04 248.499 1598.37 241.166C1605.71 233.832 1609.83 223.886 1609.83 213.516V57.1031C1609.83 46.7323 1605.71 36.7863 1598.37 29.453C1591.04 22.1198 1581.09 18 1570.72 18H1336.1Z" fill="black" fill-opacity="0.1"/>
<path d="M1355.65 86.4304C1355.65 83.8377 1356.68 81.3512 1358.52 79.5179C1360.35 77.6846 1362.84 76.6547 1365.43 76.6547H1541.39C1543.99 76.6547 1546.47 77.6846 1548.31 79.5179C1550.14 81.3512 1551.17 83.8377 1551.17 86.4304C1551.17 89.0231 1550.14 91.5097 1548.31 93.343C1546.47 95.1763 1543.99 96.2062 1541.39 96.2062H1365.43C1362.84 96.2062 1360.35 95.1763 1358.52 93.343C1356.68 91.5097 1355.65 89.0231 1355.65 86.4304ZM1355.65 135.309C1355.65 132.717 1356.68 130.23 1358.52 128.397C1360.35 126.564 1362.84 125.534 1365.43 125.534H1541.39C1543.99 125.534 1546.47 126.564 1548.31 128.397C1550.14 130.23 1551.17 132.717 1551.17 135.309C1551.17 137.902 1550.14 140.389 1548.31 142.222C1546.47 144.055 1543.99 145.085 1541.39 145.085H1365.43C1362.84 145.085 1360.35 144.055 1358.52 142.222C1356.68 140.389 1355.65 137.902 1355.65 135.309ZM1355.65 184.188C1355.65 181.596 1356.68 179.109 1358.52 177.276C1360.35 175.442 1362.84 174.412 1365.43 174.412H1463.19C1465.78 174.412 1468.27 175.442 1470.1 177.276C1471.93 179.109 1472.96 181.596 1472.96 184.188C1472.96 186.781 1471.93 189.267 1470.1 191.101C1468.27 192.934 1465.78 193.964 1463.19 193.964H1365.43C1362.84 193.964 1360.35 192.934 1358.52 191.101C1356.68 189.267 1355.65 186.781 1355.65 184.188Z" fill="black" fill-opacity="0.1"/>
<path d="M1054.11 717.293C1057.37 717.293 1060.49 718.588 1062.8 720.894C1065.1 723.199 1066.4 726.326 1066.4 729.587V827.933C1066.4 831.193 1065.1 834.32 1062.8 836.626C1060.49 838.931 1057.37 840.226 1054.11 840.226H936.263C929.742 840.228 923.49 842.819 918.88 847.43L894.293 872.017V729.587C894.293 726.326 895.588 723.199 897.894 720.894C900.199 718.588 903.326 717.293 906.587 717.293H1054.11ZM906.587 705C900.066 705 893.812 707.59 889.201 712.201C884.59 716.812 882 723.066 882 729.587V886.855C882 888.071 882.361 889.26 883.038 890.271C883.714 891.282 884.675 892.069 885.799 892.534C886.923 892.998 888.159 893.119 889.352 892.881C890.544 892.642 891.64 892.055 892.498 891.194L927.571 856.121C929.876 853.816 933.002 852.52 936.263 852.519H1054.11C1060.63 852.519 1066.88 849.929 1071.49 845.318C1076.1 840.707 1078.69 834.454 1078.69 827.933V729.587C1078.69 723.066 1076.1 716.812 1071.49 712.201C1066.88 707.59 1060.63 705 1054.11 705H906.587Z" fill="black" fill-opacity="0.05"/>
<path d="M918.88 748.027C918.88 746.396 919.527 744.833 920.68 743.68C921.833 742.527 923.396 741.88 925.027 741.88H1035.67C1037.3 741.88 1038.86 742.527 1040.01 743.68C1041.17 744.833 1041.81 746.396 1041.81 748.027C1041.81 749.657 1041.17 751.22 1040.01 752.373C1038.86 753.526 1037.3 754.173 1035.67 754.173H925.027C923.396 754.173 921.833 753.526 920.68 752.373C919.527 751.22 918.88 749.657 918.88 748.027ZM918.88 778.76C918.88 777.13 919.527 775.566 920.68 774.413C921.833 773.261 923.396 772.613 925.027 772.613H1035.67C1037.3 772.613 1038.86 773.261 1040.01 774.413C1041.17 775.566 1041.81 777.13 1041.81 778.76C1041.81 780.39 1041.17 781.953 1040.01 783.106C1038.86 784.259 1037.3 784.906 1035.67 784.906H925.027C923.396 784.906 921.833 784.259 920.68 783.106C919.527 781.953 918.88 780.39 918.88 778.76ZM918.88 809.493C918.88 807.863 919.527 806.299 920.68 805.147C921.833 803.994 923.396 803.346 925.027 803.346H986.493C988.123 803.346 989.687 803.994 990.839 805.147C991.992 806.299 992.64 807.863 992.64 809.493C992.64 811.123 991.992 812.687 990.839 813.839C989.687 814.992 988.123 815.64 986.493 815.64H925.027C923.396 815.64 921.833 814.992 920.68 813.839C919.527 812.687 918.88 811.123 918.88 809.493Z" fill="black" fill-opacity="0.05"/>
<path d="M1577.91 730.456C1571.43 730.456 1565.21 733.032 1560.62 737.619C1556.03 742.205 1553.46 748.426 1553.46 754.912V950.558C1553.46 957.044 1556.03 963.265 1560.62 967.851C1565.21 972.437 1571.43 975.014 1577.91 975.014H1812.34C1825.32 975.017 1837.75 980.172 1846.93 989.345L1895.84 1038.26V754.912C1895.84 748.426 1893.26 742.205 1888.67 737.619C1884.09 733.032 1877.87 730.456 1871.38 730.456H1577.91ZM1871.38 706C1884.35 706 1896.79 711.153 1905.97 720.326C1915.14 729.499 1920.29 741.939 1920.29 754.912V1067.77C1920.29 1070.19 1919.57 1072.56 1918.23 1074.57C1916.88 1076.58 1914.97 1078.15 1912.74 1079.07C1910.5 1080 1908.04 1080.24 1905.67 1079.76C1903.29 1079.29 1901.12 1078.12 1899.41 1076.41L1829.64 1006.64C1825.05 1002.05 1818.83 999.471 1812.34 999.47H1577.91C1564.94 999.47 1552.5 994.316 1543.33 985.144C1534.15 975.971 1529 963.53 1529 950.558V754.912C1529 741.939 1534.15 729.499 1543.33 720.326C1552.5 711.153 1564.94 706 1577.91 706H1871.38Z" fill="black" fill-opacity="0.1"/>
<path d="M1602.37 791.595C1602.37 788.352 1603.66 785.242 1605.95 782.949C1608.24 780.656 1611.35 779.367 1614.6 779.367H1834.7C1837.94 779.367 1841.05 780.656 1843.34 782.949C1845.64 785.242 1846.93 788.352 1846.93 791.595C1846.93 794.838 1845.64 797.949 1843.34 800.242C1841.05 802.535 1837.94 803.823 1834.7 803.823H1614.6C1611.35 803.823 1608.24 802.535 1605.95 800.242C1603.66 797.949 1602.37 794.838 1602.37 791.595ZM1602.37 852.735C1602.37 849.492 1603.66 846.382 1605.95 844.088C1608.24 841.795 1611.35 840.507 1614.6 840.507H1834.7C1837.94 840.507 1841.05 841.795 1843.34 844.088C1845.64 846.382 1846.93 849.492 1846.93 852.735C1846.93 855.978 1845.64 859.088 1843.34 861.381C1841.05 863.674 1837.94 864.963 1834.7 864.963H1614.6C1611.35 864.963 1608.24 863.674 1605.95 861.381C1603.66 859.088 1602.37 855.978 1602.37 852.735ZM1602.37 913.874C1602.37 910.631 1603.66 907.521 1605.95 905.228C1608.24 902.935 1611.35 901.646 1614.6 901.646H1736.87C1740.12 901.646 1743.23 902.935 1745.52 905.228C1747.81 907.521 1749.1 910.631 1749.1 913.874C1749.1 917.117 1747.81 920.228 1745.52 922.521C1743.23 924.814 1740.12 926.102 1736.87 926.102H1614.6C1611.35 926.102 1608.24 924.814 1605.95 922.521C1603.66 920.228 1602.37 917.117 1602.37 913.874Z" fill="black" fill-opacity="0.1"/>
<path d="M637.772 54.3858C633.956 54.3858 630.297 55.9014 627.599 58.5993C624.901 61.2971 623.386 64.9562 623.386 68.7715V183.858C623.386 187.673 624.901 191.332 627.599 194.03C630.297 196.728 633.956 198.243 637.772 198.243H775.673C783.304 198.245 790.621 201.277 796.015 206.673L824.786 235.445V68.7715C824.786 64.9562 823.271 61.2971 820.573 58.5993C817.875 55.9014 814.216 54.3858 810.401 54.3858H637.772ZM810.401 40C818.031 40 825.35 43.0313 830.745 48.427C836.141 53.8227 839.172 61.1408 839.172 68.7715V252.809C839.172 254.232 838.749 255.623 837.958 256.806C837.167 257.989 836.042 258.911 834.727 259.454C833.412 259.998 831.965 260.139 830.569 259.86C829.173 259.581 827.892 258.894 826.887 257.887L785.844 216.844C783.147 214.146 779.489 212.63 775.673 212.629H637.772C630.141 212.629 622.823 209.598 617.427 204.202C612.031 198.806 609 191.488 609 183.858V68.7715C609 61.1408 612.031 53.8227 617.427 48.427C622.823 43.0313 630.141 40 637.772 40H810.401Z" fill="black" fill-opacity="0.05"/>
<path d="M652.157 90.3502C652.157 88.4426 652.915 86.613 654.264 85.2641C655.613 83.9152 657.442 83.1573 659.35 83.1573H788.822C790.73 83.1573 792.559 83.9152 793.908 85.2641C795.257 86.613 796.015 88.4426 796.015 90.3502C796.015 92.2579 795.257 94.0874 793.908 95.4364C792.559 96.7853 790.73 97.5431 788.822 97.5431H659.35C657.442 97.5431 655.613 96.7853 654.264 95.4364C652.915 94.0874 652.157 92.2579 652.157 90.3502ZM652.157 126.315C652.157 124.407 652.915 122.577 654.264 121.229C655.613 119.88 657.442 119.122 659.35 119.122H788.822C790.73 119.122 792.559 119.88 793.908 121.229C795.257 122.577 796.015 124.407 796.015 126.315C796.015 128.222 795.257 130.052 793.908 131.401C792.559 132.75 790.73 133.508 788.822 133.508H659.35C657.442 133.508 655.613 132.75 654.264 131.401C652.915 130.052 652.157 128.222 652.157 126.315ZM652.157 162.279C652.157 160.371 652.915 158.542 654.264 157.193C655.613 155.844 657.442 155.086 659.35 155.086H731.279C733.187 155.086 735.016 155.844 736.365 157.193C737.714 158.542 738.472 160.371 738.472 162.279C738.472 164.187 737.714 166.016 736.365 167.365C735.016 168.714 733.187 169.472 731.279 169.472H659.35C657.442 169.472 655.613 168.714 654.264 167.365C652.915 166.016 652.157 164.187 652.157 162.279Z" fill="black" fill-opacity="0.05"/>
<path d="M707.75 725.125C712.822 725.125 717.687 727.14 721.273 730.727C724.86 734.313 726.875 739.178 726.875 744.25V897.25C726.875 902.322 724.86 907.187 721.273 910.773C717.687 914.36 712.822 916.375 707.75 916.375H659.938C653.999 916.375 648.143 917.758 642.832 920.413C637.52 923.069 632.9 926.925 629.337 931.675L593 980.119L556.662 931.675C553.1 926.925 548.48 923.069 543.168 920.413C537.857 917.758 532.001 916.375 526.062 916.375H478.25C473.178 916.375 468.313 914.36 464.727 910.773C461.14 907.187 459.125 902.322 459.125 897.25V744.25C459.125 739.178 461.14 734.313 464.727 730.727C468.313 727.14 473.178 725.125 478.25 725.125H707.75ZM478.25 706C468.105 706 458.376 710.03 451.203 717.203C444.03 724.376 440 734.105 440 744.25V897.25C440 907.395 444.03 917.124 451.203 924.297C458.376 931.47 468.105 935.5 478.25 935.5H526.062C529.032 935.5 531.96 936.191 534.615 937.519C537.271 938.847 539.581 940.775 541.363 943.15L577.7 991.594C579.481 993.969 581.791 995.897 584.447 997.225C587.103 998.552 590.031 999.244 593 999.244C595.969 999.244 598.897 998.552 601.553 997.225C604.209 995.897 606.519 993.969 608.3 991.594L644.637 943.15C646.419 940.775 648.729 938.847 651.385 937.519C654.04 936.191 656.968 935.5 659.938 935.5H707.75C717.895 935.5 727.624 931.47 734.797 924.297C741.97 917.124 746 907.395 746 897.25V744.25C746 734.105 741.97 724.376 734.797 717.203C727.624 710.03 717.895 706 707.75 706H478.25Z" fill="black" fill-opacity="0.1"/>
<path d="M497.375 772.938C497.375 770.401 498.382 767.969 500.176 766.176C501.969 764.382 504.401 763.375 506.938 763.375H679.062C681.599 763.375 684.031 764.382 685.824 766.176C687.618 767.969 688.625 770.401 688.625 772.938C688.625 775.474 687.618 777.906 685.824 779.699C684.031 781.493 681.599 782.5 679.062 782.5H506.938C504.401 782.5 501.969 781.493 500.176 779.699C498.382 777.906 497.375 775.474 497.375 772.938ZM497.375 820.75C497.375 818.214 498.382 815.782 500.176 813.988C501.969 812.195 504.401 811.188 506.938 811.188H679.062C681.599 811.188 684.031 812.195 685.824 813.988C687.618 815.782 688.625 818.214 688.625 820.75C688.625 823.286 687.618 825.718 685.824 827.512C684.031 829.305 681.599 830.312 679.062 830.312H506.938C504.401 830.312 501.969 829.305 500.176 827.512C498.382 825.718 497.375 823.286 497.375 820.75ZM497.375 868.562C497.375 866.026 498.382 863.594 500.176 861.801C501.969 860.007 504.401 859 506.938 859H602.562C605.099 859 607.531 860.007 609.324 861.801C611.118 863.594 612.125 866.026 612.125 868.562C612.125 871.099 611.118 873.531 609.324 875.324C607.531 877.118 605.099 878.125 602.562 878.125H506.938C504.401 878.125 501.969 877.118 500.176 875.324C498.382 873.531 497.375 871.099 497.375 868.562Z" fill="black" fill-opacity="0.1"/>
<path d="M206.22 571.587C208.763 571.587 211.202 572.597 212.999 574.395C214.797 576.193 215.807 578.632 215.807 581.174V657.872C215.807 660.414 214.797 662.853 212.999 664.651C211.202 666.449 208.763 667.459 206.22 667.459H182.252C179.276 667.459 176.34 668.152 173.677 669.483C171.015 670.814 168.699 672.747 166.913 675.129L148.697 699.413L130.482 675.129C128.696 672.747 126.38 670.814 123.717 669.483C121.055 668.152 118.119 667.459 115.142 667.459H91.1743C88.6317 667.459 86.1931 666.449 84.3952 664.651C82.5972 662.853 81.5872 660.414 81.5872 657.872V581.174C81.5872 578.632 82.5972 576.193 84.3952 574.395C86.1931 572.597 88.6317 571.587 91.1743 571.587H206.22ZM91.1743 562C86.089 562 81.2119 564.02 77.616 567.616C74.0201 571.212 72 576.089 72 581.174V657.872C72 662.957 74.0201 667.834 77.616 671.43C81.2119 675.026 86.089 677.046 91.1743 677.046H115.142C116.631 677.046 118.099 677.393 119.43 678.058C120.761 678.724 121.919 679.69 122.812 680.881L141.028 705.165C141.921 706.356 143.079 707.322 144.41 707.988C145.741 708.653 147.209 709 148.697 709C150.186 709 151.654 708.653 152.985 707.988C154.316 707.322 155.474 706.356 156.367 705.165L174.583 680.881C175.476 679.69 176.634 678.724 177.965 678.058C179.296 677.393 180.764 677.046 182.252 677.046H206.22C211.306 677.046 216.183 675.026 219.779 671.43C223.374 667.834 225.395 662.957 225.395 657.872V581.174C225.395 576.089 223.374 571.212 219.779 567.616C216.183 564.02 211.306 562 206.22 562H91.1743Z" fill="black" fill-opacity="0.05"/>
<path d="M100.761 595.555C100.761 594.284 101.267 593.064 102.165 592.165C103.064 591.267 104.284 590.761 105.555 590.761H191.84C193.111 590.761 194.33 591.267 195.229 592.165C196.128 593.064 196.633 594.284 196.633 595.555C196.633 596.826 196.128 598.046 195.229 598.945C194.33 599.844 193.111 600.349 191.84 600.349H105.555C104.284 600.349 103.064 599.844 102.165 598.945C101.267 598.046 100.761 596.826 100.761 595.555ZM100.761 619.523C100.761 618.252 101.267 617.032 102.165 616.133C103.064 615.234 104.284 614.729 105.555 614.729H191.84C193.111 614.729 194.33 615.234 195.229 616.133C196.128 617.032 196.633 618.252 196.633 619.523C196.633 620.794 196.128 622.014 195.229 622.913C194.33 623.812 193.111 624.317 191.84 624.317H105.555C104.284 624.317 103.064 623.812 102.165 622.913C101.267 622.014 100.761 620.794 100.761 619.523ZM100.761 643.491C100.761 642.22 101.267 641 102.165 640.101C103.064 639.202 104.284 638.697 105.555 638.697H153.491C154.762 638.697 155.981 639.202 156.88 640.101C157.779 641 158.284 642.22 158.284 643.491C158.284 644.762 157.779 645.981 156.88 646.88C155.981 647.779 154.762 648.284 153.491 648.284H105.555C104.284 648.284 103.064 647.779 102.165 646.88C101.267 645.981 100.761 644.762 100.761 643.491Z" fill="black" fill-opacity="0.05"/>
<path d="M1138.62 131.688C1141.72 131.688 1144.7 132.919 1146.89 135.111C1149.08 137.303 1150.31 140.275 1150.31 143.375V236.875C1150.31 239.975 1149.08 242.947 1146.89 245.139C1144.7 247.331 1141.72 248.562 1138.62 248.562H1109.41C1105.78 248.562 1102.2 249.407 1098.95 251.03C1095.71 252.653 1092.88 255.009 1090.71 257.913L1068.5 287.517L1046.29 257.913C1044.12 255.009 1041.29 252.653 1038.05 251.03C1034.8 249.407 1031.22 248.563 1027.59 248.562H998.375C995.275 248.562 992.303 247.331 990.111 245.139C987.919 242.947 986.688 239.975 986.688 236.875V143.375C986.688 140.275 987.919 137.303 990.111 135.111C992.303 132.919 995.275 131.688 998.375 131.688H1138.62ZM998.375 120C992.176 120 986.23 122.463 981.846 126.846C977.463 131.23 975 137.176 975 143.375V236.875C975 243.074 977.463 249.02 981.846 253.404C986.23 257.787 992.176 260.25 998.375 260.25H1027.59C1029.41 260.25 1031.2 260.672 1032.82 261.484C1034.44 262.295 1035.86 263.473 1036.94 264.925L1059.15 294.529C1060.24 295.981 1061.65 297.159 1063.27 297.971C1064.9 298.782 1066.69 299.204 1068.5 299.204C1070.31 299.204 1072.1 298.782 1073.73 297.971C1075.35 297.159 1076.76 295.981 1077.85 294.529L1100.06 264.925C1101.14 263.473 1102.56 262.295 1104.18 261.484C1105.8 260.672 1107.59 260.25 1109.41 260.25H1138.62C1144.82 260.25 1150.77 257.787 1155.15 253.404C1159.54 249.02 1162 243.074 1162 236.875V143.375C1162 137.176 1159.54 131.23 1155.15 126.846C1150.77 122.463 1144.82 120 1138.62 120H998.375Z" fill="black" fill-opacity="0.05"/>
<path d="M1010.06 160.906C1010.06 159.356 1010.68 157.87 1011.77 156.774C1012.87 155.678 1014.36 155.062 1015.91 155.062H1121.09C1122.64 155.062 1124.13 155.678 1125.23 156.774C1126.32 157.87 1126.94 159.356 1126.94 160.906C1126.94 162.456 1126.32 163.942 1125.23 165.038C1124.13 166.134 1122.64 166.75 1121.09 166.75H1015.91C1014.36 166.75 1012.87 166.134 1011.77 165.038C1010.68 163.942 1010.06 162.456 1010.06 160.906ZM1010.06 190.125C1010.06 188.575 1010.68 187.089 1011.77 185.993C1012.87 184.897 1014.36 184.281 1015.91 184.281H1121.09C1122.64 184.281 1124.13 184.897 1125.23 185.993C1126.32 187.089 1126.94 188.575 1126.94 190.125C1126.94 191.675 1126.32 193.161 1125.23 194.257C1124.13 195.353 1122.64 195.969 1121.09 195.969H1015.91C1014.36 195.969 1012.87 195.353 1011.77 194.257C1010.68 193.161 1010.06 191.675 1010.06 190.125ZM1010.06 219.344C1010.06 217.794 1010.68 216.308 1011.77 215.212C1012.87 214.116 1014.36 213.5 1015.91 213.5H1074.34C1075.89 213.5 1077.38 214.116 1078.48 215.212C1079.57 216.308 1080.19 217.794 1080.19 219.344C1080.19 220.894 1079.57 222.38 1078.48 223.476C1077.38 224.572 1075.89 225.188 1074.34 225.188H1015.91C1014.36 225.188 1012.87 224.572 1011.77 223.476C1010.68 222.38 1010.06 220.894 1010.06 219.344Z" fill="black" fill-opacity="0.05"/>
<path d="M1612.46 382.732C1608.82 382.732 1605.33 384.179 1602.75 386.754C1600.18 389.329 1598.73 392.822 1598.73 396.464V506.319C1598.73 509.961 1600.18 513.453 1602.75 516.029C1605.33 518.604 1608.82 520.051 1612.46 520.051H1744.1C1751.38 520.052 1758.37 522.947 1763.51 528.097L1790.98 555.561V396.464C1790.98 392.822 1789.53 389.329 1786.96 386.754C1784.38 384.179 1780.89 382.732 1777.25 382.732H1612.46ZM1777.25 369C1784.53 369 1791.52 371.893 1796.67 377.044C1801.82 382.194 1804.71 389.18 1804.71 396.464V572.136C1804.71 573.494 1804.31 574.822 1803.55 575.951C1802.8 577.081 1801.72 577.96 1800.47 578.479C1799.21 578.998 1797.83 579.133 1796.5 578.867C1795.17 578.6 1793.94 577.945 1792.98 576.983L1753.81 537.806C1751.23 535.23 1747.74 533.783 1744.1 533.782H1612.46C1605.18 533.782 1598.19 530.889 1593.04 525.738C1587.89 520.588 1585 513.603 1585 506.319V396.464C1585 389.18 1587.89 382.194 1593.04 377.044C1598.19 371.893 1605.18 369 1612.46 369H1777.25Z" fill="black" fill-opacity="0.05"/>
<path d="M1626.2 417.061C1626.2 415.241 1626.92 413.494 1628.21 412.207C1629.49 410.919 1631.24 410.196 1633.06 410.196H1756.65C1758.47 410.196 1760.22 410.919 1761.5 412.207C1762.79 413.494 1763.51 415.241 1763.51 417.061C1763.51 418.882 1762.79 420.629 1761.5 421.916C1760.22 423.204 1758.47 423.927 1756.65 423.927H1633.06C1631.24 423.927 1629.49 423.204 1628.21 421.916C1626.92 420.629 1626.2 418.882 1626.2 417.061ZM1626.2 451.391C1626.2 449.57 1626.92 447.824 1628.21 446.536C1629.49 445.249 1631.24 444.525 1633.06 444.525H1756.65C1758.47 444.525 1760.22 445.249 1761.5 446.536C1762.79 447.824 1763.51 449.57 1763.51 451.391C1763.51 453.212 1762.79 454.958 1761.5 456.246C1760.22 457.534 1758.47 458.257 1756.65 458.257H1633.06C1631.24 458.257 1629.49 457.534 1628.21 456.246C1626.92 454.958 1626.2 453.212 1626.2 451.391ZM1626.2 485.721C1626.2 483.9 1626.92 482.153 1628.21 480.866C1629.49 479.578 1631.24 478.855 1633.06 478.855H1701.72C1703.54 478.855 1705.29 479.578 1706.58 480.866C1707.86 482.153 1708.59 483.9 1708.59 485.721C1708.59 487.542 1707.86 489.288 1706.58 490.576C1705.29 491.863 1703.54 492.587 1701.72 492.587H1633.06C1631.24 492.587 1629.49 491.863 1628.21 490.576C1626.92 489.288 1626.2 487.542 1626.2 485.721Z" fill="black" fill-opacity="0.05"/>
</g>
<defs>
<clipPath id="clip0">
<rect width="1920" height="1080" fill="white"/>
</clipPath>
</defs>
</svg>
